<svg version="1.1" xmlns="http://www.w3.org/2000/svg" viewBox="0 0 3607.333333333334 2210.2638888888882" width="3607.333333333334" height="2210.2638888888882">
  <!-- svg-source:excalidraw -->
  
  <defs>
    <style class="style-fonts">
      @font-face {
        font-family: "Virgil";
        src: url("https://excalidraw.com/Virgil.woff2");
      }
      @font-face {
        font-family: "Cascadia";
        src: url("https://excalidraw.com/Cascadia.woff2");
      }
      @font-face {
        font-family: "Assistant";
        src: url("https://excalidraw.com/Assistant-Regular.woff2");
      }
    </style>
    
  </defs>
  <rect x="0" y="0" width="3607.333333333334" height="2210.2638888888882" fill="#ffffff"></rect><g stroke-linecap="round" transform="translate(2211.361111111113 13.333333333333314) rotate(0 58.888888888888914 45)"><path d="M22.5 0 C44.12 1.03, 67.51 0.72, 95.28 0 M22.5 0 C51.51 0.13, 78.86 0.94, 95.28 0 M95.28 0 C108.5 -1.99, 117.53 8.05, 117.78 22.5 M95.28 0 C108.1 0.26, 115.8 9.71, 117.78 22.5 M117.78 22.5 C118.59 34.6, 117.71 44.84, 117.78 67.5 M117.78 22.5 C118 39.82, 117.42 55.51, 117.78 67.5 M117.78 67.5 C119.06 81.93, 108.35 91.84, 95.28 90 M117.78 67.5 C118.49 82.85, 111.03 90.48, 95.28 90 M95.28 90 C72.16 91.75, 53.98 90.43, 22.5 90 M95.28 90 C65.33 90.06, 36.3 89.76, 22.5 90 M22.5 90 C7.17 91.01, 1.01 82.42, 0 67.5 M22.5 90 C7.53 89.92, -0.73 80.45, 0 67.5 M0 67.5 C-1.26 56.39, 1.67 46.66, 0 22.5 M0 67.5 C-0.57 52.36, -0.44 35.83, 0 22.5 M0 22.5 C-0.86 8.01, 7.06 0.99, 22.5 0 M0 22.5 C0.73 6.07, 5.33 -0.8, 22.5 0" stroke="#1e1e1e" stroke-width="1" fill="none"></path></g><g transform="translate(2235.8055555555575 35.55555555555554) rotate(0 27.233333587646484 11.5)"><text x="0" y="0" font-family="Helvetica, Segoe UI Emoji" font-size="20px" fill="#1e1e1e" text-anchor="start" style="white-space: pre;" direction="ltr" dominant-baseline="text-before-edge">log db</text></g><g stroke-linecap="round" transform="translate(1975.8055555555577 10) rotate(0 61.111111111111086 43.33333333333334)"><path d="M21.67 0 C38.27 0.51, 54.25 1.29, 100.56 0 M21.67 0 C41.98 0.52, 61.01 0.46, 100.56 0 M100.56 0 C115.25 1.38, 121.47 7.29, 122.22 21.67 M100.56 0 C114.64 -2.05, 123.88 7.57, 122.22 21.67 M122.22 21.67 C123.62 37, 120.45 52.15, 122.22 65 M122.22 21.67 C121.76 34.22, 122.92 44.22, 122.22 65 M122.22 65 C124.15 78.72, 116.61 84.75, 100.56 86.67 M122.22 65 C122.92 81.49, 113.34 85.03, 100.56 86.67 M100.56 86.67 C76.08 87.78, 51.86 85.33, 21.67 86.67 M100.56 86.67 C75.46 87.03, 51.54 85.46, 21.67 86.67 M21.67 86.67 C7.93 84.8, -0.01 77.94, 0 65 M21.67 86.67 C5.49 87.08, -0.28 77.69, 0 65 M0 65 C-0.17 55.69, 0.09 45.62, 0 21.67 M0 65 C-0.68 54.25, -0.36 43.24, 0 21.67 M0 21.67 C1.53 7.19, 8.84 -1.17, 21.67 0 M0 21.67 C-1.3 7.1, 6 1.44, 21.67 0" stroke="#1e1e1e" stroke-width="1" fill="none"></path></g><g transform="translate(1993.583333333335 42.22222222222223) rotate(0 47.78333282470703 34.5)"><text x="0" y="0" font-family="Helvetica, Segoe UI Emoji" font-size="20px" fill="#1e1e1e" text-anchor="start" style="white-space: pre;" direction="ltr" dominant-baseline="text-before-edge">log service</text><text x="0" y="23" font-family="Helvetica, Segoe UI Emoji" font-size="20px" fill="#1e1e1e" text-anchor="start" style="white-space: pre;" direction="ltr" dominant-baseline="text-before-edge"></text><text x="0" y="46" font-family="Helvetica, Segoe UI Emoji" font-size="20px" fill="#1e1e1e" text-anchor="start" style="white-space: pre;" direction="ltr" dominant-baseline="text-before-edge"></text></g><g stroke-linecap="round"><g transform="translate(2099.1388888888905 57.77777777777777) rotate(0 55.55555555555566 1.6666666666666714)"><path d="M0.68 0.69 C19.3 1.21, 93.4 1.54, 111.93 2.16 M-0.42 0 C18.09 0.71, 92.76 2.64, 111.42 3.08" stroke="#1e1e1e" stroke-width="1" fill="none"></path></g><g transform="translate(2099.1388888888905 57.77777777777777) rotate(0 55.55555555555566 1.6666666666666714)"><path d="M87.72 11.04 C96.48 9.74, 100.93 7.11, 111.42 3.08 M87.72 11.04 C96.76 8.24, 106.4 4.38, 111.42 3.08" stroke="#1e1e1e" stroke-width="1" fill="none"></path></g><g transform="translate(2099.1388888888905 57.77777777777777) rotate(0 55.55555555555566 1.6666666666666714)"><path d="M88.15 -6.06 C96.63 -1.9, 100.95 0.91, 111.42 3.08 M88.15 -6.06 C97.06 -2.21, 106.53 0.58, 111.42 3.08" stroke="#1e1e1e" stroke-width="1" fill="none"></path></g></g><mask></mask><g stroke-linecap="round" transform="translate(2299.1388888888905 141.1111111111112) rotate(0 215.55555555555566 255.83333333333337)"><path d="M32 0 C170.81 -1.07, 307.93 -2.81, 399.11 0 M32 0 C171.06 -0.69, 309.56 -1.33, 399.11 0 M399.11 0 C421 1.91, 432.85 9.47, 431.11 32 M399.11 0 C419.97 0.76, 430.76 11.43, 431.11 32 M431.11 32 C430.04 206.8, 430.41 380.36, 431.11 479.67 M431.11 32 C432.6 159.63, 432.71 287.01, 431.11 479.67 M431.11 479.67 C432.05 501.89, 418.59 513.67, 399.11 511.67 M431.11 479.67 C430.4 500.43, 418.77 510.22, 399.11 511.67 M399.11 511.67 C322.75 511.61, 244.21 509.75, 32 511.67 M399.11 511.67 C262.36 512.91, 125.78 513.57, 32 511.67 M32 511.67 C12.17 511.17, -1.1 499.2, 0 479.67 M32 511.67 C12.85 510.17, -1.31 500.2, 0 479.67 M0 479.67 C-0.43 358.54, -0.91 237.8, 0 32 M0 479.67 C-1.38 337.36, -0.52 195.15, 0 32 M0 32 C1.22 10.17, 11.97 1.58, 32 0 M0 32 C0.92 10.39, 9.2 0.18, 32 0" stroke="#1e1e1e" stroke-width="1" fill="none"></path></g><g transform="translate(2342.4722222222244 195.55555555555566) rotate(0 33.358333587646484 11.5)"><text x="0" y="0" font-family="Helvetica, Segoe UI Emoji" font-size="20px" fill="#1e1e1e" text-anchor="start" style="white-space: pre;" direction="ltr" dominant-baseline="text-before-edge">data db</text></g><g stroke-linecap="round" transform="translate(2334.694444444446 243.33333333333343) rotate(0 53.888888888888914 131.11111111111111)"><path d="M26.94 0 C45.37 0.69, 58.92 -0.87, 80.83 0 M26.94 0 C38.98 0.3, 52.94 0.25, 80.83 0 M80.83 0 C97.17 -1.6, 108.67 7.37, 107.78 26.94 M80.83 0 C96.7 1.74, 107.98 7.51, 107.78 26.94 M107.78 26.94 C107.12 84.32, 108.95 143.81, 107.78 235.28 M107.78 26.94 C107.45 94.8, 107.75 162.3, 107.78 235.28 M107.78 235.28 C107.73 251.61, 99.11 263.2, 80.83 262.22 M107.78 235.28 C109.17 251.77, 101.01 261.3, 80.83 262.22 M80.83 262.22 C63.42 261.15, 43.4 261.31, 26.94 262.22 M80.83 262.22 C60.48 261.66, 39.65 262.77, 26.94 262.22 M26.94 262.22 C8.48 261.08, 0.1 252.89, 0 235.28 M26.94 262.22 C9.02 264.38, -1.43 253.23, 0 235.28 M0 235.28 C2.26 159.24, -0.55 80.14, 0 26.94 M0 235.28 C-0.5 178.99, -0.27 121.78, 0 26.94 M0 26.94 C0.52 7.8, 8.85 1.03, 26.94 0 M0 26.94 C-0.8 8.23, 8.17 -0.86, 26.94 0" stroke="#1e1e1e" stroke-width="1" fill="none"></path></g><g transform="translate(2349.1388888888905 263.3333333333334) rotate(0 30.016666412353516 11.5)"><text x="0" y="0" font-family="Helvetica, Segoe UI Emoji" font-size="20px" fill="#1e1e1e" text-anchor="start" style="white-space: pre;" direction="ltr" dominant-baseline="text-before-edge">table 1</text></g><g stroke-linecap="round" transform="translate(2469.694444444446 244.44444444444446) rotate(0 53.888888888888914 131.1111111111111)"><path d="M26.94 0 C38.71 0.91, 51.82 1.77, 80.83 0 M26.94 0 C45.85 -0.03, 64.22 -1.18, 80.83 0 M80.83 0 C98.1 -1.3, 108.82 9.1, 107.78 26.94 M80.83 0 C100.71 -0.42, 107.39 10.43, 107.78 26.94 M107.78 26.94 C110.2 80.23, 108.08 132.93, 107.78 235.28 M107.78 26.94 C109.08 74.68, 108.82 122.02, 107.78 235.28 M107.78 235.28 C107.24 253.65, 98.59 261.11, 80.83 262.22 M107.78 235.28 C110.03 253.4, 98.85 260.63, 80.83 262.22 M80.83 262.22 C67.63 261.62, 58.34 262.4, 26.94 262.22 M80.83 262.22 C68.9 261.93, 56.58 262.93, 26.94 262.22 M26.94 262.22 C7.05 262.61, 0.13 252.62, 0 235.28 M26.94 262.22 C9.84 261.51, 0.5 252.62, 0 235.28 M0 235.28 C3.23 170.84, 2.65 108.31, 0 26.94 M0 235.28 C-0.93 171.83, -1.17 108.92, 0 26.94 M0 26.94 C-0.12 8.17, 8.13 1.58, 26.94 0 M0 26.94 C0.48 7.67, 8.35 -1.32, 26.94 0" stroke="#1e1e1e" stroke-width="1" fill="none"></path></g><g transform="translate(2484.1388888888905 264.44444444444446) rotate(0 30.016666412353516 11.5)"><text x="0" y="0" font-family="Helvetica, Segoe UI Emoji" font-size="20px" fill="#1e1e1e" text-anchor="start" style="white-space: pre;" direction="ltr" dominant-baseline="text-before-edge">table 2</text></g><g stroke-linecap="round" transform="translate(2597.4722222222244 242.2222222222224) rotate(0 53.888888888888914 131.11111111111114)"><path d="M26.94 0 C36.51 -0.23, 51.68 0.71, 80.83 0 M26.94 0 C45.53 0.5, 63.97 -0.03, 80.83 0 M80.83 0 C100.66 -0.94, 106.39 10.58, 107.78 26.94 M80.83 0 C96.98 -1.63, 108.44 10.84, 107.78 26.94 M107.78 26.94 C106.85 92.46, 107.36 158.88, 107.78 235.28 M107.78 26.94 C108.4 80.83, 107.35 133.73, 107.78 235.28 M107.78 235.28 C106.42 253.79, 98.59 262.6, 80.83 262.22 M107.78 235.28 C105.8 253.86, 99.88 264.03, 80.83 262.22 M80.83 262.22 C63.31 261.33, 43.27 263.27, 26.94 262.22 M80.83 262.22 C61.82 262.35, 43.45 262.27, 26.94 262.22 M26.94 262.22 C8.57 263.55, -0.04 253.54, 0 235.28 M26.94 262.22 C11.15 261.93, 2.2 255.43, 0 235.28 M0 235.28 C-0.67 178.07, -2.04 117.35, 0 26.94 M0 235.28 C2.06 166.3, 0.33 99.55, 0 26.94 M0 26.94 C-1.12 7.3, 9.84 1.47, 26.94 0 M0 26.94 C0.68 7.1, 9.61 -0.21, 26.94 0" stroke="#1e1e1e" stroke-width="1" fill="none"></path></g><g transform="translate(2611.916666666669 262.2222222222224) rotate(0 30.016666412353516 11.5)"><text x="0" y="0" font-family="Helvetica, Segoe UI Emoji" font-size="20px" fill="#1e1e1e" text-anchor="start" style="white-space: pre;" direction="ltr" dominant-baseline="text-before-edge">table 3</text></g><g stroke-linecap="round" transform="translate(1463.5833333333353 162.22222222222223) rotate(0 321.66666666666686 35.55555555555554)"><path d="M17.78 0 C216.51 1.73, 413.93 1.29, 625.56 0 M17.78 0 C172.48 0.57, 327.16 0.85, 625.56 0 M625.56 0 C636.17 -1.19, 643.25 6.65, 643.33 17.78 M625.56 0 C637.45 0.06, 641.05 6.02, 643.33 17.78 M643.33 17.78 C642.11 25.62, 642.66 33.92, 643.33 53.33 M643.33 17.78 C643.36 29.47, 643.42 41.85, 643.33 53.33 M643.33 53.33 C644.23 65.24, 639.27 69.59, 625.56 71.11 M643.33 53.33 C645.57 63.01, 637.46 69.55, 625.56 71.11 M625.56 71.11 C471.98 69.98, 319.9 69.82, 17.78 71.11 M625.56 71.11 C458.25 68.67, 290.48 69.16, 17.78 71.11 M17.78 71.11 C7.42 72.64, 1.04 64.8, 0 53.33 M17.78 71.11 C5.09 70.45, 1.53 67.36, 0 53.33 M0 53.33 C0.55 42.8, 0.13 28.9, 0 17.78 M0 53.33 C-0.38 45.85, -0.22 38.72, 0 17.78 M0 17.78 C0.7 5.83, 7.59 -0.52, 17.78 0 M0 17.78 C-1.86 7.03, 4.09 1.51, 17.78 0" stroke="#1e1e1e" stroke-width="1" fill="none"></path></g><g stroke-linecap="round"><g transform="translate(1834.1830264778373 161.1111111111111) rotate(0 101.92237564997123 -32.77777777777777)"><path d="M0.32 -0.4 C34.24 -11.11, 169.64 -53.77, 203.58 -64.51 M-0.97 -1.65 C32.76 -12.66, 168.46 -55.23, 202.5 -66.09" stroke="#1e1e1e" stroke-width="1" fill="none"></path></g><g transform="translate(1834.1830264778373 161.1111111111111) rotate(0 101.92237564997123 -32.77777777777777)"><path d="M182.67 -50.85 C188.11 -56.01, 196.58 -60.03, 202.5 -66.09 M182.67 -50.85 C190.17 -57.05, 197.26 -62.42, 202.5 -66.09" stroke="#1e1e1e" stroke-width="1" fill="none"></path></g><g transform="translate(1834.1830264778373 161.1111111111111) rotate(0 101.92237564997123 -32.77777777777777)"><path d="M177.52 -67.16 C184.5 -67.33, 194.55 -66.37, 202.5 -66.09 M177.52 -67.16 C186.78 -67.52, 195.72 -67.03, 202.5 -66.09" stroke="#1e1e1e" stroke-width="1" fill="none"></path></g></g><mask></mask><g stroke-linecap="round" transform="translate(1012.4722222222242 144.44444444444446) rotate(0 86.66666666666671 81.66666666666669)"><path d="M32 0 C63.78 0.89, 94.89 -2.74, 141.33 0 M32 0 C72.88 -0.94, 114.9 0.63, 141.33 0 M141.33 0 C160.85 0.14, 174.93 9.31, 173.33 32 M141.33 0 C162.91 -0.77, 171.97 9.77, 173.33 32 M173.33 32 C174.18 52.11, 171.67 73.84, 173.33 131.33 M173.33 32 C175 60.64, 174.11 88.22, 173.33 131.33 M173.33 131.33 C174.65 154.33, 163.83 163.26, 141.33 163.33 M173.33 131.33 C172.29 152.17, 164.52 163.22, 141.33 163.33 M141.33 163.33 C109.64 164.91, 78.6 164.57, 32 163.33 M141.33 163.33 C117.25 162.75, 92.39 163.51, 32 163.33 M32 163.33 C8.75 163.69, 1.65 151.18, 0 131.33 M32 163.33 C9.89 164.96, -2.1 153.66, 0 131.33 M0 131.33 C0.66 101.86, 1.64 70.15, 0 32 M0 131.33 C0.41 93.28, -1.45 52.56, 0 32 M0 32 C0.47 11.18, 11.16 -1, 32 0 M0 32 C0.87 10.48, 12.61 -0.56, 32 0" stroke="#1e1e1e" stroke-width="1" fill="none"></path></g><g transform="translate(1038.0277777777796 163.33333333333331) rotate(0 62.80833435058594 46)"><text x="0" y="0" font-family="Helvetica, Segoe UI Emoji" font-size="20px" fill="#1e1e1e" text-anchor="start" style="white-space: pre;" direction="ltr" dominant-baseline="text-before-edge">User Interface</text><text x="0" y="23" font-family="Helvetica, Segoe UI Emoji" font-size="20px" fill="#1e1e1e" text-anchor="start" style="white-space: pre;" direction="ltr" dominant-baseline="text-before-edge"></text><text x="0" y="46" font-family="Helvetica, Segoe UI Emoji" font-size="20px" fill="#1e1e1e" text-anchor="start" style="white-space: pre;" direction="ltr" dominant-baseline="text-before-edge">or userland </text><text x="0" y="69" font-family="Helvetica, Segoe UI Emoji" font-size="20px" fill="#1e1e1e" text-anchor="start" style="white-space: pre;" direction="ltr" dominant-baseline="text-before-edge">backend.</text></g><g stroke-linecap="round"><g transform="translate(2111.3611111111127 205.16509958096856) rotate(0 91.66666666666686 2.7042835701529953)"><path d="M0.14 0.83 C30.41 1.48, 151.8 3.41, 182.47 4.24 M-1.24 0.23 C29.32 0.94, 153.88 4.59, 184.73 5.16" stroke="#1e1e1e" stroke-width="1" fill="none"></path></g><g transform="translate(2111.3611111111127 205.16509958096856) rotate(0 91.66666666666686 2.7042835701529953)"><path d="M161.03 13.13 C171.22 8.69, 176.69 8.58, 184.73 5.16 M161.03 13.13 C169.08 9.81, 177.31 7.59, 184.73 5.16" stroke="#1e1e1e" stroke-width="1" fill="none"></path></g><g transform="translate(2111.3611111111127 205.16509958096856) rotate(0 91.66666666666686 2.7042835701529953)"><path d="M161.45 -3.97 C171.53 -2.04, 176.85 4.21, 184.73 5.16 M161.45 -3.97 C169.27 -1.65, 177.37 1.76, 184.73 5.16" stroke="#1e1e1e" stroke-width="1" fill="none"></path></g></g><mask></mask><g transform="translate(1488.0277777777796 182.22222222222211) rotate(0 109.35832977294922 23)"><text x="0" y="0" font-family="Helvetica, Segoe UI Emoji" font-size="20px" fill="#1e1e1e" text-anchor="start" style="white-space: pre;" direction="ltr" dominant-baseline="text-before-edge">"csv" gatekeeper service</text><text x="0" y="23" font-family="Helvetica, Segoe UI Emoji" font-size="20px" fill="#1e1e1e" text-anchor="start" style="white-space: pre;" direction="ltr" dominant-baseline="text-before-edge"></text></g><g stroke-linecap="round"><g transform="translate(1188.1666666666686 188.0053770004469) rotate(0 136.59722222222223 6.873102303885275)"><path d="M-0.98 -0.63 C44.29 1.82, 226.69 11.88, 272.34 14.27 M0.7 1.65 C46.3 3.78, 229.39 10.19, 274.61 12.43" stroke="#1e1e1e" stroke-width="1" fill="none"></path></g><g transform="translate(1188.1666666666686 188.0053770004469) rotate(0 136.59722222222223 6.873102303885275)"><path d="M250.79 20 C258.26 16.08, 268.7 14.36, 274.61 12.43 M250.79 20 C258.24 18.18, 265.61 16.17, 274.61 12.43" stroke="#1e1e1e" stroke-width="1" fill="none"></path></g><g transform="translate(1188.1666666666686 188.0053770004469) rotate(0 136.59722222222223 6.873102303885275)"><path d="M251.49 2.91 C258.65 5.08, 268.84 9.46, 274.61 12.43 M251.49 2.91 C258.73 6.2, 265.89 9.3, 274.61 12.43" stroke="#1e1e1e" stroke-width="1" fill="none"></path></g></g><mask></mask><g transform="translate(1205.8055555555575 149.99999999999983) rotate(0 103.91666412353513 23)"><text x="0" y="0" font-family="Helvetica, Segoe UI Emoji" font-size="20px" fill="#1e1e1e" text-anchor="start" style="white-space: pre;" direction="ltr" dominant-baseline="text-before-edge">csv submission request</text><text x="0" y="23" font-family="Helvetica, Segoe UI Emoji" font-size="20px" fill="#1e1e1e" text-anchor="start" style="white-space: pre;" direction="ltr" dominant-baseline="text-before-edge"></text></g><g stroke-linecap="round"><g transform="translate(1383.5739599824733 299.1666666666668) rotate(0 -102.21753554679123 0.06900039180422368)"><path d="M0.62 0.36 C-33.63 0.37, -170.84 1.1, -205.02 0.94 M-0.51 -0.49 C-34.41 -0.9, -168.5 -0.91, -202.62 -0.76" stroke="#1e1e1e" stroke-width="1" fill="none"></path></g><g transform="translate(1383.5739599824733 299.1666666666668) rotate(0 -102.21753554679123 0.06900039180422368)"><path d="M-179.14 -9.35 C-186.5 -7.27, -193.79 -3.39, -202.62 -0.76 M-179.14 -9.35 C-185.25 -6.22, -191.37 -4.49, -202.62 -0.76" stroke="#1e1e1e" stroke-width="1" fill="none"></path></g><g transform="translate(1383.5739599824733 299.1666666666668) rotate(0 -102.21753554679123 0.06900039180422368)"><path d="M-179.11 7.75 C-186.6 3.99, -193.91 2.02, -202.62 -0.76 M-179.11 7.75 C-185.29 6.78, -191.41 4.4, -202.62 -0.76" stroke="#1e1e1e" stroke-width="1" fill="none"></path></g></g><mask></mask><g stroke-linecap="round" transform="translate(2870.6666666666674 140.7638888888887) rotate(0 363.33333333333337 147.50000000000017)"><path d="M32 0 C208.93 -2.08, 387.25 -2.24, 694.67 0 M32 0 C194.85 0.06, 357.8 0.3, 694.67 0 M694.67 0 C715.37 0.87, 726.45 9.73, 726.67 32 M694.67 0 C716.03 -2.3, 727.67 11.14, 726.67 32 M726.67 32 C725.06 85.27, 727.25 141.87, 726.67 263 M726.67 32 C725.08 79.42, 725.8 127.62, 726.67 263 M726.67 263 C728.32 285.39, 716.07 294.44, 694.67 295 M726.67 263 C727.44 282.99, 718.16 293.1, 694.67 295 M694.67 295 C558.96 293.56, 422.65 294.26, 32 295 M694.67 295 C520.41 296.46, 346.05 296.2, 32 295 M32 295 C9.44 294.98, -1.88 283.53, 0 263 M32 295 C12.77 294.11, 0.82 286.4, 0 263 M0 263 C2.85 192.39, 0.65 122.83, 0 32 M0 263 C-0.17 182.65, -0.07 104.19, 0 32 M0 32 C-0.58 11.91, 11.66 -0.62, 32 0 M0 32 C2.07 10.38, 12.88 -1.28, 32 0" stroke="#1971c2" stroke-width="1" fill="none"></path></g><g transform="translate(2929.000000000001 192.43055555555532) rotate(0 91.0250015258789 23)"><text x="0" y="0" font-family="Helvetica, Segoe UI Emoji" font-size="20px" fill="#1971c2" text-anchor="start" style="white-space: pre;" direction="ltr" dominant-baseline="text-before-edge">starter "csv" schema</text><text x="0" y="23" font-family="Helvetica, Segoe UI Emoji" font-size="20px" fill="#1971c2" text-anchor="start" style="white-space: pre;" direction="ltr" dominant-baseline="text-before-edge"></text></g><g transform="translate(2927.333333333334 247.43055555555532) rotate(0 187.3000030517578 11.5)"><text x="0" y="0" font-family="Helvetica, Segoe UI Emoji" font-size="20px" fill="#1971c2" text-anchor="start" style="white-space: pre;" direction="ltr" dominant-baseline="text-before-edge">timestamp, user, submission-id, datapoint </text></g><g stroke-linecap="round"><g transform="translate(2705.6666666666674 287.4305555555553) rotate(0 81.66666666666674 -30)"><path d="M-0.61 -0.19 C26.87 -10.17, 136.9 -50.22, 164.3 -60.18 M1.27 -1.33 C28.73 -11.09, 136.87 -49.19, 163.86 -58.73" stroke="#1971c2" stroke-width="1" fill="none"></path></g></g><mask></mask><g transform="translate(2972.333333333334 160.7638888888887) rotate(0 206.78334045410156 23)"><text x="0" y="0" font-family="Helvetica, Segoe UI Emoji" font-size="20px" fill="#e03131" text-anchor="start" style="white-space: pre;" direction="ltr" dominant-baseline="text-before-edge">~DB Schema depends on data expectations. ~</text><text x="0" y="23" font-family="Helvetica, Segoe UI Emoji" font-size="20px" fill="#e03131" text-anchor="start" style="white-space: pre;" direction="ltr" dominant-baseline="text-before-edge"></text></g><g transform="translate(1207.333333333334 317.4305555555553) rotate(0 127.29166412353516 80.5)"><text x="0" y="0" font-family="Helvetica, Segoe UI Emoji" font-size="20px" fill="#1e1e1e" text-anchor="start" style="white-space: pre;" direction="ltr" dominant-baseline="text-before-edge">response:</text><text x="0" y="23" font-family="Helvetica, Segoe UI Emoji" font-size="20px" fill="#1e1e1e" text-anchor="start" style="white-space: pre;" direction="ltr" dominant-baseline="text-before-edge"></text><text x="0" y="46" font-family="Helvetica, Segoe UI Emoji" font-size="20px" fill="#1e1e1e" text-anchor="start" style="white-space: pre;" direction="ltr" dominant-baseline="text-before-edge">- success w/ metadata</text><text x="0" y="69" font-family="Helvetica, Segoe UI Emoji" font-size="20px" fill="#1e1e1e" text-anchor="start" style="white-space: pre;" direction="ltr" dominant-baseline="text-before-edge">- failure</text><text x="0" y="92" font-family="Helvetica, Segoe UI Emoji" font-size="20px" fill="#1e1e1e" text-anchor="start" style="white-space: pre;" direction="ltr" dominant-baseline="text-before-edge">    enumerate failure reasons</text><text x="0" y="115" font-family="Helvetica, Segoe UI Emoji" font-size="20px" fill="#1e1e1e" text-anchor="start" style="white-space: pre;" direction="ltr" dominant-baseline="text-before-edge"></text><text x="0" y="138" font-family="Helvetica, Segoe UI Emoji" font-size="20px" fill="#1e1e1e" text-anchor="start" style="white-space: pre;" direction="ltr" dominant-baseline="text-before-edge"></text></g><g stroke-linecap="round"><g transform="translate(1382.3333333333337 297.4305555555552) rotate(0 56.666666666666686 -34.16666666666663)"><path d="M0.62 0.61 C9.04 -5.14, 31.36 -23.48, 50.1 -34.97 C68.84 -46.47, 102.38 -62.73, 113.07 -68.38 M-0.52 -0.12 C7.8 -5.61, 30.42 -22.26, 49.2 -33.42 C67.98 -44.58, 101.21 -61.31, 112.16 -67.08" stroke="#1e1e1e" stroke-width="1" fill="none"></path></g></g><mask></mask><g stroke-linecap="round" transform="translate(456.33333333333417 785.7638888888882) rotate(0 216.66666666666666 43.333333333333314)"><path d="M21.67 0 C148.62 -0.69, 274.71 -0.76, 411.67 0 M21.67 0 C157.21 0.23, 293.72 0.28, 411.67 0 M411.67 0 C427.82 -1.34, 434.41 6.06, 433.33 21.67 M411.67 0 C423.98 -2.2, 431.28 8.88, 433.33 21.67 M433.33 21.67 C434.57 33.08, 433.05 43.39, 433.33 65 M433.33 21.67 C432.9 32.96, 434.12 44.43, 433.33 65 M433.33 65 C432.89 80.29, 424.99 88.45, 411.67 86.67 M433.33 65 C432.19 77.9, 423.99 84.44, 411.67 86.67 M411.67 86.67 C273.79 86.81, 133.67 88.01, 21.67 86.67 M411.67 86.67 C321.06 89.11, 229.87 88.3, 21.67 86.67 M21.67 86.67 C8.42 86.13, 0.06 77.62, 0 65 M21.67 86.67 C7.11 85.28, -2.26 77.47, 0 65 M0 65 C0.4 52.83, -0.48 44.62, 0 21.67 M0 65 C0.27 54.16, -0.29 42.27, 0 21.67 M0 21.67 C1.24 7.53, 8.4 0.59, 21.67 0 M0 21.67 C1.59 8.15, 5.45 -1.06, 21.67 0" stroke="#1971c2" stroke-width="1" fill="none"></path></g><g transform="translate(64.00000000000068 621.5638888888881) rotate(0 244.09165954589844 41.39999999999998)"><text x="0" y="0" font-family="Helvetica, Segoe UI Emoji" font-size="36px" fill="#1971c2" text-anchor="start" style="white-space: pre;" direction="ltr" dominant-baseline="text-before-edge">gatekeeper service description</text><text x="0" y="41.4" font-family="Helvetica, Segoe UI Emoji" font-size="36px" fill="#1971c2" text-anchor="start" style="white-space: pre;" direction="ltr" dominant-baseline="text-before-edge"></text></g><g transform="translate(486.3333333333337 812.430555555555) rotate(0 187.46665954589844 24)"><text x="0" y="0" font-family="Cascadia, Segoe UI Emoji" font-size="20px" fill="#1971c2" text-anchor="start" style="white-space: pre;" direction="ltr" dominant-baseline="text-before-edge">get csv store initiation request</text><text x="0" y="24" font-family="Cascadia, Segoe UI Emoji" font-size="20px" fill="#1971c2" text-anchor="start" style="white-space: pre;" direction="ltr" dominant-baseline="text-before-edge"></text></g><g stroke-linecap="round" transform="translate(495.6666666666674 1284.0972222222222) rotate(0 155.83333333333331 115.83333333333337)"><path d="M195 29 C217.45 44.66, 240.62 65.12, 272.67 87 M195 29 C221.03 49.12, 245.75 67.01, 272.67 87 M272.67 87 C310.3 116.16, 312.72 117.69, 272.67 145 M272.67 87 C311.05 117.14, 310.25 115.07, 272.67 145 M272.67 145 C251.09 160.83, 230.88 173.22, 195 202.67 M272.67 145 C242.58 168.05, 214.86 188.08, 195 202.67 M195 202.67 C155.8 231.14, 156.44 232.45, 117 202.67 M195 202.67 C158.28 231.38, 157.82 233.18, 117 202.67 M117 202.67 C93.65 184.48, 66.49 165.34, 39 145 M117 202.67 C86.83 181.01, 56.79 158.72, 39 145 M39 145 C-0.73 114.24, 1.42 117.68, 39 87 M39 145 C-2.24 115.26, 1.57 113.91, 39 87 M39 87 C71.04 61.71, 99.69 41.26, 117 29 M39 87 C57.03 74.18, 74.91 59.88, 117 29 M117 29 C157.68 0.82, 156.59 -1.44, 195 29 M117 29 C157.35 2.13, 155.39 -0.24, 195 29" stroke="#1971c2" stroke-width="1" fill="none"></path></g><g transform="translate(577.333333333334 1395.7638888888887) rotate(0 70.30000305175781 12)"><text x="0" y="0" font-family="Cascadia, Segoe UI Emoji" font-size="20px" fill="#1971c2" text-anchor="start" style="white-space: pre;" direction="ltr" dominant-baseline="text-before-edge">big or small</text></g><g stroke-linecap="round"><g transform="translate(510.6666666666679 1399.0972222222222) rotate(0 -109.99999999999994 2.4999999999998863)"><path d="M-0.94 0.5 C-37.5 1.18, -182.76 3.35, -219.24 3.99 M0.77 -0.28 C-35.9 0.52, -182.92 4.07, -219.79 4.99" stroke="#1971c2" stroke-width="1" fill="none"></path></g></g><mask></mask><g stroke-linecap="round"><g transform="translate(287.3333333333345 1407.4305555555557) rotate(0 -0.42877192010843146 191.72435227717892)"><path d="M0.78 -0.08 C0.61 64.14, -0.86 320.43, -1.07 384.19 M-0.27 -1.16 C-0.61 62.8, -2 318.38, -2.13 382.45" stroke="#1971c2" stroke-width="1" fill="none"></path></g><g transform="translate(287.3333333333345 1407.4305555555557) rotate(0 -0.42877192010843146 191.72435227717892)"><path d="M-10.58 358.93 C-8.44 365.45, -4.59 373.39, -2.13 382.45 M-10.58 358.93 C-9.48 363.36, -7.44 368.21, -2.13 382.45" stroke="#1971c2" stroke-width="1" fill="none"></path></g><g transform="translate(287.3333333333345 1407.4305555555557) rotate(0 -0.42877192010843146 191.72435227717892)"><path d="M6.52 358.99 C3.63 365.6, 2.44 373.53, -2.13 382.45 M6.52 358.99 C3.88 363.45, 2.18 368.28, -2.13 382.45" stroke="#1971c2" stroke-width="1" fill="none"></path></g></g><mask></mask><g stroke-linecap="round"><g transform="translate(802.3333333333345 1402.4305555555557) rotate(0 49.99999999999994 3.3333333333332575)"><path d="M0.66 -0.32 C17.07 0.91, 82.39 5.54, 98.95 6.78 M-0.46 -1.53 C16.27 -0.04, 84.49 7.29, 101.12 8.38" stroke="#1971c2" stroke-width="1" fill="none"></path></g></g><mask></mask><g stroke-linecap="round"><g transform="translate(907.3333333333348 1410.7638888888887) rotate(0 -0.8333333333334849 143.33333333333326)"><path d="M0.5 -0.84 C0.2 47.13, -0.44 239.12, -0.99 287.14 M-0.7 1.34 C-1.17 49, -1.61 237.95, -1.59 285.27" stroke="#1971c2" stroke-width="1" fill="none"></path></g><g transform="translate(907.3333333333348 1410.7638888888887) rotate(0 -0.8333333333334849 143.33333333333326)"><path d="M-10.11 261.76 C-8.5 271.5, -3.18 277.1, -1.59 285.27 M-10.11 261.76 C-6.96 270.67, -4.39 278.05, -1.59 285.27" stroke="#1971c2" stroke-width="1" fill="none"></path></g><g transform="translate(907.3333333333348 1410.7638888888887) rotate(0 -0.8333333333334849 143.33333333333326)"><path d="M6.99 261.78 C2.31 271.59, 1.33 277.18, -1.59 285.27 M6.99 261.78 C4.17 270.82, 0.76 278.19, -1.59 285.27" stroke="#1971c2" stroke-width="1" fill="none"></path></g></g><mask></mask><g stroke-linecap="round"><g transform="translate(1652.333333333334 230.76388888888857) rotate(0 -141.66666666666663 189.99999999999977)"><path d="M-0.13 0.79 C-47.52 63.89, -237.23 316.25, -284.51 379.61 M-1.65 0.16 C-48.68 63.34, -235.22 317.78, -282.41 380.94" stroke="#1971c2" stroke-width="1" fill="none"></path></g></g><mask></mask><g transform="translate(279.0000000000009 1797.4305555555552) rotate(359.5978966931336 24.016666412353516 20.700000000000045)"><text x="0" y="0" font-family="Helvetica, Segoe UI Emoji" font-size="36px" fill="#1971c2" text-anchor="start" style="white-space: pre;" direction="ltr" dominant-baseline="text-before-edge">big</text></g><g stroke-linecap="round"><g transform="translate(676.0878819920754 877.4305555555552) rotate(0 1.436489384533317 27.500000000000057)"><path d="M-0.45 -0.54 C-0.08 8.86, 2.11 46.31, 2.86 55.47 M1.52 1.79 C1.67 10.91, 1.51 44.66, 1.9 53.59" stroke="#1971c2" stroke-width="1" fill="none"></path></g><g transform="translate(676.0878819920754 877.4305555555552) rotate(0 1.436489384533317 27.500000000000057)"><path d="M-7.04 30.24 C-4.96 38.52, -0.11 48.71, 1.9 53.59 M-7.04 30.24 C-5.64 35.79, -2.82 41.46, 1.9 53.59" stroke="#1971c2" stroke-width="1" fill="none"></path></g><g transform="translate(676.0878819920754 877.4305555555552) rotate(0 1.436489384533317 27.500000000000057)"><path d="M10.06 29.95 C6.08 38.27, 4.87 48.57, 1.9 53.59 M10.06 29.95 C7.22 35.46, 5.79 41.2, 1.9 53.59" stroke="#1971c2" stroke-width="1" fill="none"></path></g></g><mask></mask><g stroke-linecap="round" transform="translate(494.0000000000007 935.7638888888883) rotate(0 184.16666666666663 85.83333333333326)"><path d="M32 0 C96.44 1.65, 164.18 -0.51, 336.33 0 M32 0 C139.89 1.97, 246.1 2.57, 336.33 0 M336.33 0 C358.89 -0.07, 366.57 10.97, 368.33 32 M336.33 0 C359.12 -1.28, 369.29 12.08, 368.33 32 M368.33 32 C369.47 63.76, 367.99 96.22, 368.33 139.67 M368.33 32 C368.55 66.48, 369.19 101.46, 368.33 139.67 M368.33 139.67 C367.02 162.04, 359.07 170.24, 336.33 171.67 M368.33 139.67 C366.4 162.55, 355.79 170.5, 336.33 171.67 M336.33 171.67 C221.97 173.14, 105.09 173.69, 32 171.67 M336.33 171.67 C266.53 173.34, 196.03 173.41, 32 171.67 M32 171.67 C12.64 170.6, 0.34 161.03, 0 139.67 M32 171.67 C9.12 169.39, -1.78 160.29, 0 139.67 M0 139.67 C-1.92 103.31, 0.66 63.29, 0 32 M0 139.67 C1.49 99.76, 1.22 59.36, 0 32 M0 32 C-0.86 9.88, 9.21 -0.43, 32 0 M0 32 C-0.85 10.68, 10.23 -1.52, 32 0" stroke="#1971c2" stroke-width="1" fill="none"></path></g><g transform="translate(557.3333333333342 973.2972222222216) rotate(0 101.16666412353516 57.5)"><text x="0" y="0" font-family="Helvetica, Segoe UI Emoji" font-size="20px" fill="#1971c2" text-anchor="start" style="white-space: pre;" direction="ltr" dominant-baseline="text-before-edge">reject if:</text><text x="0" y="23" font-family="Helvetica, Segoe UI Emoji" font-size="20px" fill="#1971c2" text-anchor="start" style="white-space: pre;" direction="ltr" dominant-baseline="text-before-edge">    access not allowed</text><text x="0" y="46" font-family="Helvetica, Segoe UI Emoji" font-size="20px" fill="#1971c2" text-anchor="start" style="white-space: pre;" direction="ltr" dominant-baseline="text-before-edge">    seems malicious</text><text x="0" y="69" font-family="Helvetica, Segoe UI Emoji" font-size="20px" fill="#1971c2" text-anchor="start" style="white-space: pre;" direction="ltr" dominant-baseline="text-before-edge">    user route cooldown</text><text x="0" y="92" font-family="Helvetica, Segoe UI Emoji" font-size="20px" fill="#1971c2" text-anchor="start" style="white-space: pre;" direction="ltr" dominant-baseline="text-before-edge">    </text></g><g stroke-linecap="round"><g transform="translate(674.0000000000007 1107.4305555555552) rotate(0 -6.666666666666629 92.5)"><path d="M0.09 1.12 C-2.38 32.1, -12.28 154.84, -14.38 185.37 M-1.33 0.66 C-3.47 31.32, -10.3 152.68, -12.22 183.44" stroke="#1971c2" stroke-width="1" fill="none"></path></g><g transform="translate(674.0000000000007 1107.4305555555552) rotate(0 -6.666666666666629 92.5)"><path d="M-19.37 159.48 C-15.21 165.75, -14.08 176.85, -12.22 183.44 M-19.37 159.48 C-17.99 164.62, -15.86 170.69, -12.22 183.44" stroke="#1971c2" stroke-width="1" fill="none"></path></g><g transform="translate(674.0000000000007 1107.4305555555552) rotate(0 -6.666666666666629 92.5)"><path d="M-2.3 160.49 C-3.86 166.43, -8.44 177.19, -12.22 183.44 M-2.3 160.49 C-4.97 165.38, -6.9 171.21, -12.22 183.44" stroke="#1971c2" stroke-width="1" fill="none"></path></g></g><mask></mask><g transform="translate(867.3333333333344 1721.5638888888889) rotate(0 42 20.700000000000045)"><text x="0" y="0" font-family="Helvetica, Segoe UI Emoji" font-size="36px" fill="#1971c2" text-anchor="start" style="white-space: pre;" direction="ltr" dominant-baseline="text-before-edge">small</text></g><g stroke-linecap="round" transform="translate(90.66666666666742 1847.4305555555552) rotate(0 199.99999999999994 125.83333333333292)"><path d="M32 0 C125.16 0.39, 218.36 0.5, 368 0 M32 0 C133.76 1.44, 235.85 0.13, 368 0 M368 0 C389.16 1.99, 398.04 12.34, 400 32 M368 0 C387.8 -2.17, 397.89 8.96, 400 32 M400 32 C401.13 87.14, 401.23 142.7, 400 219.67 M400 32 C398.72 100.92, 397.6 171.29, 400 219.67 M400 219.67 C401.9 242.27, 391.18 252.84, 368 251.67 M400 219.67 C398.61 242.16, 388.23 251.24, 368 251.67 M368 251.67 C263.86 251.87, 157.56 251.53, 32 251.67 M368 251.67 C251.24 252.63, 135.44 252.86, 32 251.67 M32 251.67 C11.66 250.2, -1.99 241.53, 0 219.67 M32 251.67 C10.64 251.03, -0.88 241.61, 0 219.67 M0 219.67 C0.46 182.93, -3.21 144.78, 0 32 M0 219.67 C-2.1 148.81, -0.95 78.45, 0 32 M0 32 C0.04 11.46, 11.51 -0.88, 32 0 M0 32 C-0.04 8.43, 12.96 -2.19, 32 0" stroke="#1971c2" stroke-width="1" fill="none"></path></g><g stroke-linecap="round" transform="translate(599.0000000000011 1777.4305555555552) rotate(0 309.16666666666663 177.49999999999943)"><path d="M32 0 C191 0.46, 349.32 0.92, 586.33 0 M32 0 C247.75 0.58, 463.4 0.82, 586.33 0 M586.33 0 C608.03 1.12, 619.58 10.44, 618.33 32 M586.33 0 C606.26 -2.05, 617.81 8.75, 618.33 32 M618.33 32 C617.8 116.36, 616.34 199.33, 618.33 323 M618.33 32 C617.44 101.53, 618.48 170.73, 618.33 323 M618.33 323 C618.23 343.16, 609.14 355.27, 586.33 355 M618.33 323 C618.32 342.97, 609.6 353.57, 586.33 355 M586.33 355 C454.37 355.98, 321.62 355.43, 32 355 M586.33 355 C422.93 355.47, 260.04 354.93, 32 355 M32 355 C11.08 355.22, 0.92 343.11, 0 323 M32 355 C11.22 356.5, -0.31 345.15, 0 323 M0 323 C-1.9 238.11, -1.62 155.08, 0 32 M0 323 C0.63 232.61, 0.21 140.5, 0 32 M0 32 C1.04 12.14, 9.75 -1.09, 32 0 M0 32 C1.15 9.29, 9.14 -1.3, 32 0" stroke="#1971c2" stroke-width="1" fill="none"></path></g><g transform="translate(624.0000000000009 1917.4305555555552) rotate(0 274.01666259765625 80.50000000000011)"><text x="0" y="0" font-family="Helvetica, Segoe UI Emoji" font-size="20px" fill="#1971c2" text-anchor="start" style="white-space: pre;" direction="ltr" dominant-baseline="text-before-edge"></text><text x="0" y="23" font-family="Helvetica, Segoe UI Emoji" font-size="20px" fill="#1971c2" text-anchor="start" style="white-space: pre;" direction="ltr" dominant-baseline="text-before-edge"></text><text x="0" y="46" font-family="Helvetica, Segoe UI Emoji" font-size="20px" fill="#1971c2" text-anchor="start" style="white-space: pre;" direction="ltr" dominant-baseline="text-before-edge">- determine which "csv" 1|2|3</text><text x="0" y="69" font-family="Helvetica, Segoe UI Emoji" font-size="20px" fill="#1971c2" text-anchor="start" style="white-space: pre;" direction="ltr" dominant-baseline="text-before-edge">- generate a submission id, and singular sub id</text><text x="0" y="92" font-family="Helvetica, Segoe UI Emoji" font-size="20px" fill="#1971c2" text-anchor="start" style="white-space: pre;" direction="ltr" dominant-baseline="text-before-edge">- break csv into database transaction groups of n submissions</text><text x="0" y="115" font-family="Helvetica, Segoe UI Emoji" font-size="20px" fill="#1971c2" text-anchor="start" style="white-space: pre;" direction="ltr" dominant-baseline="text-before-edge">- execute transaction w/ submission id</text><text x="0" y="138" font-family="Helvetica, Segoe UI Emoji" font-size="20px" fill="#1971c2" text-anchor="start" style="white-space: pre;" direction="ltr" dominant-baseline="text-before-edge">    </text></g><g transform="translate(62.33333333333405 675.7638888888886) rotate(0 273.9916687011719 11.5)"><text x="0" y="0" font-family="Helvetica, Segoe UI Emoji" font-size="20px" fill="#1971c2" text-anchor="start" style="white-space: pre;" direction="ltr" dominant-baseline="text-before-edge">assume requests to log service on rejections and successions</text></g><g transform="translate(734.0000000000005 2084.0972222222213) rotate(0 194.5416717529297 11.5)"><text x="0" y="0" font-family="Helvetica, Segoe UI Emoji" font-size="20px" fill="#1e1e1e" text-anchor="start" style="white-space: pre;" direction="ltr" dominant-baseline="text-before-edge">database reads and internal apis as needed</text></g><g transform="translate(639.0000000000007 1825.7638888888887) rotate(0 110.04166412353516 46)"><text x="0" y="0" font-family="Helvetica, Segoe UI Emoji" font-size="20px" fill="#1971c2" text-anchor="start" style="white-space: pre;" direction="ltr" dominant-baseline="text-before-edge">reject if:</text><text x="0" y="23" font-family="Helvetica, Segoe UI Emoji" font-size="20px" fill="#1971c2" text-anchor="start" style="white-space: pre;" direction="ltr" dominant-baseline="text-before-edge">    - malformed csv</text><text x="0" y="46" font-family="Helvetica, Segoe UI Emoji" font-size="20px" fill="#1971c2" text-anchor="start" style="white-space: pre;" direction="ltr" dominant-baseline="text-before-edge">    - malicious</text><text x="0" y="69" font-family="Helvetica, Segoe UI Emoji" font-size="20px" fill="#1971c2" text-anchor="start" style="white-space: pre;" direction="ltr" dominant-baseline="text-before-edge">    - duplicate submission</text></g><g transform="translate(130.62500254313238 1874.7638888888882) rotate(0 110.04166412353516 46.000000000000114)"><text x="0" y="0" font-family="Helvetica, Segoe UI Emoji" font-size="20px" fill="#1971c2" text-anchor="start" style="white-space: pre;" direction="ltr" dominant-baseline="text-before-edge">reject if:</text><text x="0" y="23" font-family="Helvetica, Segoe UI Emoji" font-size="20px" fill="#1971c2" text-anchor="start" style="white-space: pre;" direction="ltr" dominant-baseline="text-before-edge">    - too big</text><text x="0" y="46" font-family="Helvetica, Segoe UI Emoji" font-size="20px" fill="#1971c2" text-anchor="start" style="white-space: pre;" direction="ltr" dominant-baseline="text-before-edge">    - malicious</text><text x="0" y="69" font-family="Helvetica, Segoe UI Emoji" font-size="20px" fill="#1971c2" text-anchor="start" style="white-space: pre;" direction="ltr" dominant-baseline="text-before-edge">    - duplicate submission</text></g><g transform="translate(130.66666666666742 2002.4305555555552) rotate(0 168.96665954589844 57.5)"><text x="0" y="0" font-family="Helvetica, Segoe UI Emoji" font-size="20px" fill="#1971c2" text-anchor="start" style="white-space: pre;" direction="ltr" dominant-baseline="text-before-edge">- generate a submission id, and sub id</text><text x="0" y="23" font-family="Helvetica, Segoe UI Emoji" font-size="20px" fill="#1971c2" text-anchor="start" style="white-space: pre;" direction="ltr" dominant-baseline="text-before-edge">    --store submission group metadata</text><text x="0" y="46" font-family="Helvetica, Segoe UI Emoji" font-size="20px" fill="#1971c2" text-anchor="start" style="white-space: pre;" direction="ltr" dominant-baseline="text-before-edge">- return go ahead for big upload </text><text x="0" y="69" font-family="Helvetica, Segoe UI Emoji" font-size="20px" fill="#1971c2" text-anchor="start" style="white-space: pre;" direction="ltr" dominant-baseline="text-before-edge"></text><text x="0" y="92" font-family="Helvetica, Segoe UI Emoji" font-size="20px" fill="#1971c2" text-anchor="start" style="white-space: pre;" direction="ltr" dominant-baseline="text-before-edge"></text></g><g stroke-linecap="round" transform="translate(2328.999999999999 534.0972222222226) rotate(0 134.16666666666652 45.833333333333314)"><path d="M22.92 0 C80.27 -1.51, 137.11 0.71, 245.42 0 M22.92 0 C89.65 -1.59, 157.63 -2.31, 245.42 0 M245.42 0 C260.69 -0.55, 268.46 7.48, 268.33 22.92 M245.42 0 C261.33 2.09, 267.16 6.2, 268.33 22.92 M268.33 22.92 C267.32 36.84, 268.89 46.68, 268.33 68.75 M268.33 22.92 C268.02 33.99, 267.84 42.6, 268.33 68.75 M268.33 68.75 C267.2 83.77, 259.74 89.83, 245.42 91.67 M268.33 68.75 C269.21 85.35, 258.55 91.82, 245.42 91.67 M245.42 91.67 C198.18 92.63, 147.2 92.68, 22.92 91.67 M245.42 91.67 C192.59 92.75, 141.09 92.84, 22.92 91.67 M22.92 91.67 C9.4 92.69, 1.62 85.23, 0 68.75 M22.92 91.67 C7.43 91.12, 1.26 82.07, 0 68.75 M0 68.75 C0.56 54.79, -1.37 42.39, 0 22.92 M0 68.75 C0.49 57.59, -0.85 46.1, 0 22.92 M0 22.92 C1.29 8.98, 9.54 -1.72, 22.92 0 M0 22.92 C-0.82 8.21, 8.75 -0.06, 22.92 0" stroke="#1e1e1e" stroke-width="1" fill="none"></path></g><g transform="translate(2347.3333333333326 569.0972222222226) rotate(0 111.7249984741211 11.5)"><text x="0" y="0" font-family="Helvetica, Segoe UI Emoji" font-size="20px" fill="#1e1e1e" text-anchor="start" style="white-space: pre;" direction="ltr" dominant-baseline="text-before-edge">execution metadata table</text></g><g stroke-linecap="round" transform="translate(2312.333333333332 734.0972222222225) rotate(0 402.4999999999999 100.06089243239546)"><path d="M32 0 C223.93 -1.58, 414.05 -1.62, 773 0 M32 0 C188.57 -0.34, 345.41 0.23, 773 0 M773 0 C795.26 -1.27, 806.18 11.4, 805 32 M773 0 C796.27 -1.44, 804.21 11.05, 805 32 M805 32 C806.28 74.05, 803.32 115.1, 805 168.12 M805 32 C806.35 67.28, 807.09 100.86, 805 168.12 M805 168.12 C805.79 189.93, 792.95 200.34, 773 200.12 M805 168.12 C806.63 190.92, 793.66 199.34, 773 200.12 M773 200.12 C524.85 198.35, 274.64 199.16, 32 200.12 M773 200.12 C496.9 200.75, 220.08 200.9, 32 200.12 M32 200.12 C9.8 199.65, 1.93 191.05, 0 168.12 M32 200.12 C8.68 201.93, -0.06 187.19, 0 168.12 M0 168.12 C2.21 134.41, -0.16 98.16, 0 32 M0 168.12 C0.36 136.16, 1.74 103.18, 0 32 M0 32 C0.93 9.8, 9.6 0.96, 32 0 M0 32 C-1.14 12.39, 11.44 -1.07, 32 0" stroke="#1971c2" stroke-width="1" fill="none"></path></g><g stroke-linecap="round"><g transform="translate(2397.333333333332 625.7638888888893) rotate(0 25 52.5)"><path d="M0.9 0.4 C9.04 18.05, 41.42 87.88, 49.44 105.26 M-0.09 -0.43 C7.8 16.88, 39.61 85.56, 48.2 103.27" stroke="#1971c2" stroke-width="1" fill="none"></path></g></g><mask></mask><g transform="translate(2922.333333333332 314.0972222222227) rotate(0 316.8166809082031 34.5)"><text x="0" y="0" font-family="Helvetica, Segoe UI Emoji" font-size="20px" fill="#2f9e44" text-anchor="start" style="white-space: pre;" direction="ltr" dominant-baseline="text-before-edge">have personal experience with this type of table on msql and posgress. </text><text x="0" y="23" font-family="Helvetica, Segoe UI Emoji" font-size="20px" fill="#2f9e44" text-anchor="start" style="white-space: pre;" direction="ltr" dominant-baseline="text-before-edge">can handle a ton of transactions for this. </text><text x="0" y="46" font-family="Helvetica, Segoe UI Emoji" font-size="20px" fill="#2f9e44" text-anchor="start" style="white-space: pre;" direction="ltr" dominant-baseline="text-before-edge">should easily handle a million or two across a day</text></g><g transform="translate(2403.999999999999 757.4305555555558) rotate(0 263.4416809082031 11.5)"><text x="0" y="0" font-family="Helvetica, Segoe UI Emoji" font-size="20px" fill="#1971c2" text-anchor="start" style="white-space: pre;" direction="ltr" dominant-baseline="text-before-edge">storing whether submission ids have been completed or not</text></g><g transform="translate(2363.999999999999 809.0972222222225) rotate(0 355.14166259765625 23)"><text x="0" y="0" font-family="Helvetica, Segoe UI Emoji" font-size="20px" fill="#1971c2" text-anchor="start" style="white-space: pre;" direction="ltr" dominant-baseline="text-before-edge">submission-id, num_parts, current_num_parts_submitted, complete / incomplete</text><text x="0" y="23" font-family="Helvetica, Segoe UI Emoji" font-size="20px" fill="#1971c2" text-anchor="start" style="white-space: pre;" direction="ltr" dominant-baseline="text-before-edge"></text></g><g stroke-linecap="round" transform="translate(10 620.2638888888894) rotate(0 1051.666666666666 789.9999999999995)"><path d="M32 0 C666.51 1.2, 1300.59 1.06, 2071.33 0 M32 0 C708.01 0.99, 1383.63 1.6, 2071.33 0 M2071.33 0 C2093.98 -0.75, 2105.24 10.62, 2103.33 32 M2071.33 0 C2093.7 2.19, 2101.6 8.68, 2103.33 32 M2103.33 32 C2098.59 542.66, 2099.21 1054.95, 2103.33 1548 M2103.33 32 C2100.64 443.11, 2100.93 854.01, 2103.33 1548 M2103.33 1548 C2102.41 1568.95, 2094.43 1581.26, 2071.33 1580 M2103.33 1548 C2101.83 1568.84, 2093.18 1579.26, 2071.33 1580 M2071.33 1580 C1472.86 1577.67, 874.92 1576.86, 32 1580 M2071.33 1580 C1261.33 1585.16, 451.26 1584.93, 32 1580 M32 1580 C12.34 1580.49, -1.11 1570.45, 0 1548 M32 1580 C8.63 1581.28, -0.63 1568.35, 0 1548 M0 1548 C-3.62 1167.94, -4.21 787.77, 0 32 M0 1548 C-1.23 1156.48, -1.13 765.15, 0 32 M0 32 C-0.03 9.63, 11.9 -0.72, 32 0 M0 32 C1.7 9.57, 8.9 -1.2, 32 0" stroke="#1971c2" stroke-width="1" fill="none"></path></g><g stroke-linecap="round" transform="translate(1252.1666666666654 571.7638888888897) rotate(0 109 70)"><path d="M137.5 17.75 C156.66 31.98, 180.39 44.14, 190.5 53.25 M137.5 17.75 C153.23 28.32, 168.27 38.71, 190.5 53.25 M190.5 53.25 C219.04 71.74, 217.88 72.95, 190.5 88.75 M190.5 53.25 C217.55 72.99, 216.35 68.91, 190.5 88.75 M190.5 88.75 C173.2 101.2, 153.11 110.66, 137.5 122.25 M190.5 88.75 C168.95 103.12, 147.83 116.31, 137.5 122.25 M137.5 122.25 C111.6 139.96, 108.88 141.83, 82.5 122.25 M137.5 122.25 C110.2 138.27, 110 138.12, 82.5 122.25 M82.5 122.25 C61.42 111.25, 42.9 98.16, 27.5 88.75 M82.5 122.25 C70.09 114.28, 58.03 107.89, 27.5 88.75 M27.5 88.75 C-1.17 69.7, 1.14 71.37, 27.5 53.25 M27.5 88.75 C-0.68 69.18, -1.73 71.42, 27.5 53.25 M27.5 53.25 C44.72 41.57, 60.21 30.83, 82.5 17.75 M27.5 53.25 C41.2 44.57, 55.48 33.88, 82.5 17.75 M82.5 17.75 C108.64 -0.18, 109.78 1.96, 137.5 17.75 M82.5 17.75 C109.63 -1.89, 112.02 -1.81, 137.5 17.75" stroke="#1971c2" stroke-width="1" fill="none"></path></g><g transform="translate(1300.1666666666654 627.7638888888897) rotate(0 55.03333282470703 23)"><text x="0" y="0" font-family="Helvetica, Segoe UI Emoji" font-size="20px" fill="#1971c2" text-anchor="start" style="white-space: pre;" direction="ltr" dominant-baseline="text-before-edge">request type</text><text x="0" y="23" font-family="Helvetica, Segoe UI Emoji" font-size="20px" fill="#1971c2" text-anchor="start" style="white-space: pre;" direction="ltr" dominant-baseline="text-before-edge"></text></g><g stroke-linecap="round" transform="translate(1465.013508969499 983.0678507186627) rotate(0 216.66666666666669 43.33333333333326)"><path d="M21.67 0 C101.03 -1.56, 177.24 -1.79, 411.67 0 M21.67 0 C130.28 -1.25, 237.39 -0.63, 411.67 0 M411.67 0 C425.07 -1.59, 434.67 8.03, 433.33 21.67 M411.67 0 C424.63 0.37, 433.87 7.28, 433.33 21.67 M433.33 21.67 C433.49 37.72, 434.35 50.61, 433.33 65 M433.33 21.67 C433.95 35.12, 434.09 49.49, 433.33 65 M433.33 65 C433.81 78.91, 427.45 85.38, 411.67 86.67 M433.33 65 C435.47 77.94, 426.34 85.21, 411.67 86.67 M411.67 86.67 C331.86 84.32, 250.4 83.53, 21.67 86.67 M411.67 86.67 C264.05 85.32, 117.45 85.69, 21.67 86.67 M21.67 86.67 C8.58 87.98, 1.99 78.35, 0 65 M21.67 86.67 C6.98 87.09, -1.71 81.1, 0 65 M0 65 C0.71 47.98, 0.29 29.06, 0 21.67 M0 65 C0.71 53.09, -0.2 39.44, 0 21.67 M0 21.67 C0.49 7, 5.44 0, 21.67 0 M0 21.67 C-1.86 5.79, 8.6 -1.82, 21.67 0" stroke="#f08c00" stroke-width="1" fill="none"></path></g><g transform="translate(1495.0135089694986 1007.7345173853297) rotate(0 134.74166870117188 24)"><text x="0" y="0" font-family="Cascadia, Segoe UI Emoji" font-size="20px" fill="#f08c00" text-anchor="start" style="white-space: pre;" direction="ltr" dominant-baseline="text-before-edge">submission part request</text><text x="0" y="24" font-family="Cascadia, Segoe UI Emoji" font-size="20px" fill="#f08c00" text-anchor="start" style="white-space: pre;" direction="ltr" dominant-baseline="text-before-edge"></text></g><g stroke-linecap="round" transform="translate(1491.5135089694993 1119.289906163484) rotate(0 202.69686271676244 206.8533095973679)"><path d="M32 0 C142.68 -0.06, 256.46 0.4, 373.39 0 M32 0 C149.76 1.6, 266.95 2.41, 373.39 0 M373.39 0 C394.4 -1.41, 405.56 11.35, 405.39 32 M373.39 0 C392.72 -2.21, 405.25 9.99, 405.39 32 M405.39 32 C406.38 110.83, 408.1 186.14, 405.39 381.71 M405.39 32 C405.15 158.93, 406.33 286.08, 405.39 381.71 M405.39 381.71 C405.8 402.1, 395.07 415.17, 373.39 413.71 M405.39 381.71 C405.99 402.16, 392.76 413.81, 373.39 413.71 M373.39 413.71 C251.76 415, 131.05 412.59, 32 413.71 M373.39 413.71 C277.85 415.08, 182.9 414.93, 32 413.71 M32 413.71 C9.5 412.45, -1.69 403.25, 0 381.71 M32 413.71 C12.09 412.24, -1.62 405.18, 0 381.71 M0 381.71 C0.98 276.73, -1.2 173.22, 0 32 M0 381.71 C-0.02 268.85, -0.38 156.5, 0 32 M0 32 C-0.28 8.69, 9.95 1.59, 32 0 M0 32 C0.16 11.16, 9.56 0.89, 32 0" stroke="#f08c00" stroke-width="1" fill="none"></path></g><g transform="translate(1554.846842302833 1158.1011840519964) rotate(0 140.0500030517578 138)"><text x="0" y="0" font-family="Helvetica, Segoe UI Emoji" font-size="20px" fill="#f08c00" text-anchor="start" style="white-space: pre;" direction="ltr" dominant-baseline="text-before-edge">reject if:</text><text x="0" y="23" font-family="Helvetica, Segoe UI Emoji" font-size="20px" fill="#f08c00" text-anchor="start" style="white-space: pre;" direction="ltr" dominant-baseline="text-before-edge">    access not allowed</text><text x="0" y="46" font-family="Helvetica, Segoe UI Emoji" font-size="20px" fill="#f08c00" text-anchor="start" style="white-space: pre;" direction="ltr" dominant-baseline="text-before-edge">    seems malicious</text><text x="0" y="69" font-family="Helvetica, Segoe UI Emoji" font-size="20px" fill="#f08c00" text-anchor="start" style="white-space: pre;" direction="ltr" dominant-baseline="text-before-edge">    part too big</text><text x="0" y="92" font-family="Helvetica, Segoe UI Emoji" font-size="20px" fill="#f08c00" text-anchor="start" style="white-space: pre;" direction="ltr" dominant-baseline="text-before-edge"></text><text x="0" y="115" font-family="Helvetica, Segoe UI Emoji" font-size="20px" fill="#f08c00" text-anchor="start" style="white-space: pre;" direction="ltr" dominant-baseline="text-before-edge">further reject if:</text><text x="0" y="138" font-family="Helvetica, Segoe UI Emoji" font-size="20px" fill="#f08c00" text-anchor="start" style="white-space: pre;" direction="ltr" dominant-baseline="text-before-edge">    submission id invalid</text><text x="0" y="161" font-family="Helvetica, Segoe UI Emoji" font-size="20px" fill="#f08c00" text-anchor="start" style="white-space: pre;" direction="ltr" dominant-baseline="text-before-edge">    submission already complete</text><text x="0" y="184" font-family="Helvetica, Segoe UI Emoji" font-size="20px" fill="#f08c00" text-anchor="start" style="white-space: pre;" direction="ltr" dominant-baseline="text-before-edge">    part already submitted</text><text x="0" y="207" font-family="Helvetica, Segoe UI Emoji" font-size="20px" fill="#f08c00" text-anchor="start" style="white-space: pre;" direction="ltr" dominant-baseline="text-before-edge"></text><text x="0" y="230" font-family="Helvetica, Segoe UI Emoji" font-size="20px" fill="#f08c00" text-anchor="start" style="white-space: pre;" direction="ltr" dominant-baseline="text-before-edge">    </text><text x="0" y="253" font-family="Helvetica, Segoe UI Emoji" font-size="20px" fill="#f08c00" text-anchor="start" style="white-space: pre;" direction="ltr" dominant-baseline="text-before-edge">    </text></g><g stroke-linecap="round"><g transform="translate(1683.680175636166 1070.401184051996) rotate(0 -1 26)"><path d="M-0.09 0.85 C-0.03 9.51, -0.52 42.44, -0.81 50.8 M-1.6 0.25 C-1.49 9.11, -0.98 43.12, -1.14 51.71" stroke="#f08c00" stroke-width="1" fill="none"></path></g><g transform="translate(1683.680175636166 1070.401184051996) rotate(0 -1 26)"><path d="M-9.7 28.22 C-6.77 34.96, -8.46 37.98, -1.14 51.71 M-9.7 28.22 C-7.67 34.12, -6.02 38.96, -1.14 51.71" stroke="#f08c00" stroke-width="1" fill="none"></path></g><g transform="translate(1683.680175636166 1070.401184051996) rotate(0 -1 26)"><path d="M7.4 28.21 C6.86 34.94, 1.72 37.96, -1.14 51.71 M7.4 28.21 C5.72 34.26, 3.67 39.11, -1.14 51.71" stroke="#f08c00" stroke-width="1" fill="none"></path></g></g><mask></mask><g stroke-linecap="round" transform="translate(1019.935817498113 797.6550836521204) rotate(0 183.38504366818967 33.865530712244095)"><path d="M16.93 0 C107.83 -1.6, 195.87 0.09, 349.84 0 M16.93 0 C94.07 -2.63, 170.51 -2.05, 349.84 0 M349.84 0 C361.13 -0.38, 365.64 3.87, 366.77 16.93 M349.84 0 C360.24 -1.81, 366.38 6.26, 366.77 16.93 M366.77 16.93 C366.48 29.08, 365.2 40.57, 366.77 50.8 M366.77 16.93 C367.65 27.57, 367.7 36.55, 366.77 50.8 M366.77 50.8 C365.45 60.49, 360.92 66.01, 349.84 67.73 M366.77 50.8 C365.67 60.79, 361.53 69.07, 349.84 67.73 M349.84 67.73 C269.01 67.53, 185.72 67.47, 16.93 67.73 M349.84 67.73 C249.86 65.61, 148.85 65.35, 16.93 67.73 M16.93 67.73 C7.59 66.49, -0.66 63.94, 0 50.8 M16.93 67.73 C6.26 66.67, 1.89 60.11, 0 50.8 M0 50.8 C1.26 40.74, 1.68 29.38, 0 16.93 M0 50.8 C0.53 42.72, 0.59 35.92, 0 16.93 M0 16.93 C1.2 7.4, 6.64 1.67, 16.93 0 M0 16.93 C0.28 7.39, 5.67 0.2, 16.93 0" stroke="#1971c2" stroke-width="1" fill="none"></path></g><g transform="translate(1054.4403204879468 825.7698638660589) rotate(0 146.19166564941406 11.5)"><text x="0" y="0" font-family="Helvetica, Segoe UI Emoji" font-size="20px" fill="#1971c2" text-anchor="start" style="white-space: pre;" direction="ltr" dominant-baseline="text-before-edge">request for part streaming socket</text></g><g transform="translate(1486.3855801384561 952.2863748287822) rotate(0 97.82499694824219 11.5)"><text x="0" y="0" font-family="Helvetica, Segoe UI Emoji" font-size="20px" fill="#e03131" text-anchor="start" style="white-space: pre;" direction="ltr" dominant-baseline="text-before-edge">via part stream socket</text></g><g stroke-linecap="round" transform="translate(1026.325540274008 908.8362599526955) rotate(0 179.55121000265268 106.06939807985884)"><path d="M32 0 C127.27 -2.52, 224.08 -2.23, 327.1 0 M32 0 C92.24 1.59, 153.25 0.7, 327.1 0 M327.1 0 C349.18 -0.19, 357.82 11.22, 359.1 32 M327.1 0 C347.01 0.24, 359.99 9.85, 359.1 32 M359.1 32 C358.03 82.7, 357.11 133.84, 359.1 180.14 M359.1 32 C359.81 63.01, 360.31 96.28, 359.1 180.14 M359.1 180.14 C357.99 200.87, 348.17 212.93, 327.1 212.14 M359.1 180.14 C357.94 199.59, 348.1 212.7, 327.1 212.14 M327.1 212.14 C242.21 212.78, 158.64 212.14, 32 212.14 M327.1 212.14 C213.71 211.88, 99.02 212.32, 32 212.14 M32 212.14 C9.42 214.02, -1.17 200.3, 0 180.14 M32 212.14 C11.37 212.81, -0.99 200.98, 0 180.14 M0 180.14 C0.2 129.92, -0.74 81.52, 0 32 M0 180.14 C-0.31 138.41, -0.8 96.16, 0 32 M0 32 C1.77 10.07, 11.48 0.17, 32 0 M0 32 C-1.4 12.75, 12.4 -1.16, 32 0" stroke="#1971c2" stroke-width="1" fill="none"></path></g><g transform="translate(1067.4656092040425 922.8996540461093) rotate(0 140.0500030517578 92)"><text x="0" y="0" font-family="Helvetica, Segoe UI Emoji" font-size="20px" fill="#1971c2" text-anchor="start" style="white-space: pre;" direction="ltr" dominant-baseline="text-before-edge">reject if:</text><text x="0" y="23" font-family="Helvetica, Segoe UI Emoji" font-size="20px" fill="#1971c2" text-anchor="start" style="white-space: pre;" direction="ltr" dominant-baseline="text-before-edge">    access not allowed</text><text x="0" y="46" font-family="Helvetica, Segoe UI Emoji" font-size="20px" fill="#1971c2" text-anchor="start" style="white-space: pre;" direction="ltr" dominant-baseline="text-before-edge">    seems malicious</text><text x="0" y="69" font-family="Helvetica, Segoe UI Emoji" font-size="20px" fill="#1971c2" text-anchor="start" style="white-space: pre;" direction="ltr" dominant-baseline="text-before-edge">    user route cooldown</text><text x="0" y="92" font-family="Helvetica, Segoe UI Emoji" font-size="20px" fill="#1971c2" text-anchor="start" style="white-space: pre;" direction="ltr" dominant-baseline="text-before-edge">    </text><text x="0" y="115" font-family="Helvetica, Segoe UI Emoji" font-size="20px" fill="#1971c2" text-anchor="start" style="white-space: pre;" direction="ltr" dominant-baseline="text-before-edge">further reject if:</text><text x="0" y="138" font-family="Helvetica, Segoe UI Emoji" font-size="20px" fill="#1971c2" text-anchor="start" style="white-space: pre;" direction="ltr" dominant-baseline="text-before-edge">    no such submission id</text><text x="0" y="161" font-family="Helvetica, Segoe UI Emoji" font-size="20px" fill="#1971c2" text-anchor="start" style="white-space: pre;" direction="ltr" dominant-baseline="text-before-edge">    submission already complete</text></g><g transform="translate(2370.72321232234 888.389147069831) rotate(0 95.58333587646484 11.5)"><text x="0" y="0" font-family="Helvetica, Segoe UI Emoji" font-size="20px" fill="#1971c2" text-anchor="start" style="white-space: pre;" direction="ltr" dominant-baseline="text-before-edge">user route-cooldowns</text></g><g stroke-linecap="round"><g transform="translate(1206.5157225542507 1119.6971115572337) rotate(0 -1.2779445551790332 38.33833665537077)"><path d="M0.35 -0.69 C-0.2 12.07, -2.8 62.49, -3.3 75.58 M-0.92 1.56 C-1.09 14.52, -0.55 64.11, -0.98 76.54" stroke="#1971c2" stroke-width="1" fill="none"></path></g><g transform="translate(1206.5157225542507 1119.6971115572337) rotate(0 -1.2779445551790332 38.33833665537077)"><path d="M-9.32 52.97 C-8.17 58.79, -6.34 66.91, -0.98 76.54 M-9.32 52.97 C-6.32 61.54, -2.39 71.11, -0.98 76.54" stroke="#1971c2" stroke-width="1" fill="none"></path></g><g transform="translate(1206.5157225542507 1119.6971115572337) rotate(0 -1.2779445551790332 38.33833665537077)"><path d="M7.78 53.12 C3.79 58.95, 0.48 67.02, -0.98 76.54 M7.78 53.12 C3.98 61.51, 1.1 71.02, -0.98 76.54" stroke="#1971c2" stroke-width="1" fill="none"></path></g></g><mask></mask><g stroke-linecap="round" transform="translate(1031.4373184947247 1189.98406209208) rotate(0 177.63429316988402 61.34133864859314)"><path d="M30.67 0 C145 -1.86, 255.57 -1.06, 324.6 0 M30.67 0 C102.52 -1.46, 174.1 -0.49, 324.6 0 M324.6 0 C344.18 -1.3, 356.19 11.68, 355.27 30.67 M324.6 0 C344.02 0.61, 356.94 9.96, 355.27 30.67 M355.27 30.67 C354.42 54.3, 354.72 74.22, 355.27 92.01 M355.27 30.67 C354.24 51.47, 353.99 73.55, 355.27 92.01 M355.27 92.01 C355.33 113.22, 347.01 123.1, 324.6 122.68 M355.27 92.01 C356.27 114.22, 347.28 123.83, 324.6 122.68 M324.6 122.68 C260.95 123.26, 196 123.3, 30.67 122.68 M324.6 122.68 C215.17 124.73, 105.36 124.11, 30.67 122.68 M30.67 122.68 C9.04 123.66, 0.27 114.43, 0 92.01 M30.67 122.68 C12.37 124.03, 0.45 113.98, 0 92.01 M0 92.01 C-1.92 68.6, -0.1 48.28, 0 30.67 M0 92.01 C-1.01 69.7, -0.84 48.92, 0 30.67 M0 30.67 C-1.38 10.52, 11.7 1.37, 30.67 0 M0 30.67 C0.29 10.13, 9.66 -0.72, 30.67 0" stroke="#1971c2" stroke-width="1" fill="none"></path></g><g transform="translate(1097.8904353640337 1239.8238997440621) rotate(0 110.05833435058594 11.5)"><text x="0" y="0" font-family="Helvetica, Segoe UI Emoji" font-size="20px" fill="#1971c2" text-anchor="start" style="white-space: pre;" direction="ltr" dominant-baseline="text-before-edge">give em the socket, boss</text></g><g transform="translate(1551.5607524525867 1413.6243592484088) rotate(0 124.5 46)"><text x="0" y="0" font-family="Helvetica, Segoe UI Emoji" font-size="20px" fill="#f08c00" text-anchor="start" style="white-space: pre;" direction="ltr" dominant-baseline="text-before-edge">build transaction</text><text x="0" y="23" font-family="Helvetica, Segoe UI Emoji" font-size="20px" fill="#f08c00" text-anchor="start" style="white-space: pre;" direction="ltr" dominant-baseline="text-before-edge">execute, log, etc</text><text x="0" y="46" font-family="Helvetica, Segoe UI Emoji" font-size="20px" fill="#f08c00" text-anchor="start" style="white-space: pre;" direction="ltr" dominant-baseline="text-before-edge"></text><text x="0" y="69" font-family="Helvetica, Segoe UI Emoji" font-size="20px" fill="#f08c00" text-anchor="start" style="white-space: pre;" direction="ltr" dominant-baseline="text-before-edge">terminate socket connection</text></g></svg>